HIERARCHY
ROOT Hips
{
  OFFSET 0.0 0.0 0.0
  CHANNELS 6 Xposition Yposition Zposition Zrotation Xrotation Yrotation
  JOINT Joint_01
  {
    OFFSET 0.0 0.0 0.0
    CHANNELS 3 Zrotation Xrotation Yrotation
    End Site
    {
      OFFSET 0.0 0.0 0.0
    }
  }
  JOINT Joint_02
  {
    OFFSET 0.0 0.0 0.0
    CHANNELS 3 Zrotation Xrotation Yrotation
    End Site
    {
      OFFSET 0.0 0.0 0.0
    }
  }
  JOINT Joint_03
  {
    OFFSET 0.0 0.0 0.0
    CHANNELS 3 Zrotation Xrotation Yrotation
    End Site
    {
      OFFSET 0.0 0.0 0.0
    }
  }
  JOINT Joint_04
  {
    OFFSET 0.0 0.0 0.0
    CHANNELS 3 Zrotation Xrotation Yrotation
    End Site
    {
      OFFSET 0.0 0.0 0.0
    }
  }
  JOINT Joint_05
  {
    OFFSET 0.0 0.0 0.0
    CHANNELS 3 Zrotation Xrotation Yrotation
    End Site
    {
      OFFSET 0.0 0.0 0.0
    }
  }
  JOINT Joint_06
  {
    OFFSET 0.0 0.0 0.0
    CHANNELS 3 Zrotation Xrotation Yrotation
    End Site
    {
      OFFSET 0.0 0.0 0.0
    }
  }
  JOINT Joint_07
  {
    OFFSET 0.0 0.0 0.0
    CHANNELS 3 Zrotation Xrotation Yrotation
    End Site
    {
      OFFSET 0.0 0.0 0.0
    }
  }
  JOINT Joint_08
  {
    OFFSET 0.0 0.0 0.0
    CHANNELS 3 Zrotation Xrotation Yrotation
    End Site
    {
      OFFSET 0.0 0.0 0.0
    }
  }
  JOINT Joint_09
  {
    OFFSET 0.0 0.0 0.0
    CHANNELS 3 Zrotation Xrotation Yrotation
    End Site
    {
      OFFSET 0.0 0.0 0.0
    }
  }
  JOINT Joint_10
  {
    OFFSET 0.0 0.0 0.0
    CHANNELS 3 Zrotation Xrotation Yrotation
    End Site
    {
      OFFSET 0.0 0.0 0.0
    }
  }
  JOINT Joint_11
  {
    OFFSET 0.0 0.0 0.0
    CHANNELS 3 Zrotation Xrotation Yrotation
    End Site
    {
      OFFSET 0.0 0.0 0.0
    }
  }
  JOINT Joint_12
  {
    OFFSET 0.0 0.0 0.0
    CHANNELS 3 Zrotation Xrotation Yrotation
    End Site
    {
      OFFSET 0.0 0.0 0.0
    }
  }
  JOINT Joint_13
  {
    OFFSET 0.0 0.0 0.0
    CHANNELS 3 Zrotation Xrotation Yrotation
    End Site
    {
      OFFSET 0.0 0.0 0.0
    }
  }
  JOINT Joint_14
  {
    OFFSET 0.0 0.0 0.0
    CHANNELS 3 Zrotation Xrotation Yrotation
    End Site
    {
      OFFSET 0.0 0.0 0.0
    }
  }
  JOINT Joint_15
  {
    OFFSET 0.0 0.0 0.0
    CHANNELS 3 Zrotation Xrotation Yrotation
    End Site
    {
      OFFSET 0.0 0.0 0.0
    }
  }
  JOINT Joint_16
  {
    OFFSET 0.0 0.0 0.0
    CHANNELS 3 Zrotation Xrotation Yrotation
    End Site
    {
      OFFSET 0.0 0.0 0.0
    }
  }
  JOINT Joint_17
  {
    OFFSET 0.0 0.0 0.0
    CHANNELS 3 Zrotation Xrotation Yrotation
    End Site
    {
      OFFSET 0.0 0.0 0.0
    }
  }
  JOINT Joint_18
  {
    OFFSET 0.0 0.0 0.0
    CHANNELS 3 Zrotation Xrotation Yrotation
    End Site
    {
      OFFSET 0.0 0.0 0.0
    }
  }
  JOINT Joint_19
  {
    OFFSET 0.0 0.0 0.0
    CHANNELS 3 Zrotation Xrotation Yrotation
    End Site
    {
      OFFSET 0.0 0.0 0.0
    }
  }
  JOINT Joint_20
  {
    OFFSET 0.0 0.0 0.0
    CHANNELS 3 Zrotation Xrotation Yrotation
    End Site
    {
      OFFSET 0.0 0.0 0.0
    }
  }
}
MOTION
Frames: 6
Frame Time: 0.033333
0.000000 0.000000 0.000000 0.000000 0.000000 0.000000 -1.751662 -0.041828 0.275499 -1.716969 0.551090 -0.539730 -2.287627 -0.619175 0.450486 -1.892014 -0.341923 0.514606 -1.892014 -0.341923 0.514606 -1.863508 0.266332 -0.197002 -1.363748 -0.100466 0.387053 -1.685971 0.047221 0.146465 -1.685971 0.047221 0.146465 -1.450889 0.082732 -0.096582 -1.530403 -0.114272 0.265562 -1.815732 -0.406018 0.608376 -2.428320 -0.046235 0.476658 -1.972884 0.688006 -1.726030 -0.118224 1.116455 -1.219473 -1.454267 -0.476903 0.121913 -0.966729 1.110983 -1.201364 -1.199923 1.926267 -0.506837 -0.821500 -0.036785 0.059274 -0.774627 -0.644353 0.322541
0.000000 0.000000 0.000000 0.000000 0.000000 0.000000 -1.753932 -0.049042 0.267423 -1.734625 0.544677 -0.553058 -2.316922 -0.595188 0.431168 -1.953038 -0.332287 0.465285 -1.953038 -0.332287 0.465285 -1.866713 0.255189 -0.201444 -1.378242 -0.104518 0.386200 -1.707016 0.058562 0.165664 -1.707016 0.058562 0.165664 -1.442293 0.103395 -0.093798 -1.515969 -0.089558 0.272389 -1.800024 -0.401872 0.605833 -2.400239 -0.034868 0.451090 -1.933492 0.730459 -1.738378 -0.080769 1.123039 -1.222349 -1.380623 -0.465929 0.081088 -0.899596 1.146004 -1.157591 -1.141115 1.929915 -0.460771 -0.804320 -0.013559 0.068052 -0.754262 -0.622642 0.325056
0.000000 0.000000 0.000000 0.000000 0.000000 0.000000 -1.822796 -0.201047 0.200293 -1.722111 0.572726 -0.575695 -2.314234 -0.581783 0.468498 -2.009764 -0.318199 0.470740 -2.009764 -0.318199 0.470740 -1.873128 0.195254 -0.071339 -1.384337 -0.051215 0.247513 -1.700843 0.058554 0.162615 -1.700843 0.058554 0.162615 -1.479684 0.109212 -0.080891 -1.539373 -0.077511 0.296387 -1.815431 -0.417949 0.625517 -2.486948 -0.037688 0.484224 -2.002116 0.642857 -1.777332 -0.140846 1.061974 -1.270051 -1.427655 -0.443212 0.106597 -0.962395 1.126794 -1.173046 -1.137243 1.948127 -0.468786 -0.809609 -0.093015 0.060520 -0.764653 -0.705234 0.322485
0.000000 0.000000 0.000000 0.000000 0.000000 0.000000 -1.901284 -0.170455 0.276049 -1.763379 0.567010 -0.576046 -2.345105 -0.571430 0.451349 -2.015475 -0.301627 0.480389 -2.015475 -0.301627 0.480389 -1.915678 0.194875 -0.092013 -1.371275 -0.051467 0.212775 -1.662712 0.065436 0.150302 -1.662712 0.065436 0.150302 -1.566311 0.108670 -0.048903 -1.549482 -0.054408 0.332999 -1.814351 -0.411488 0.648253 -2.426288 -0.020680 0.462769 -1.958071 0.716946 -1.757012 -0.052719 1.078133 -1.279046 -1.378769 -0.491256 0.093787 -0.893757 1.142815 -1.157532 -1.098959 1.632682 -0.068994 -0.817352 -0.082746 0.033390 -0.780760 -0.692447 0.297694
0.000000 0.000000 0.000000 0.000000 0.000000 0.000000 -1.903292 -0.158344 0.289358 -1.768097 0.559365 -0.594385 -2.361642 -0.541644 0.425829 -1.985419 -0.323638 0.477634 -1.985419 -0.323638 0.477634 -1.921767 0.194265 -0.104034 -1.375397 -0.047481 0.210693 -1.663039 0.059913 0.152976 -1.663039 0.059913 0.152976 -1.572865 0.128071 -0.023888 -1.530492 -0.059339 0.345986 -1.795645 -0.415313 0.657131 -2.431182 -0.021795 0.470799 -1.971732 0.707925 -1.747343 -0.066648 1.081730 -1.276167 -1.414371 -0.464385 0.090600 -0.932199 1.122828 -1.174259 -1.200697 1.660450 -0.138466 -0.818085 -0.083764 0.023678 -0.784678 -0.693325 0.288498
0.000000 0.000000 0.000000 0.000000 0.000000 0.000000 -1.744426 -0.175590 0.248828 -1.694323 0.605677 -0.575003 -2.311382 -0.474094 0.415271 -1.979677 -0.365537 0.463931 -1.979677 -0.365537 0.463931 -1.800622 0.204969 -0.016743 -1.322357 -0.038142 0.187836 -1.648773 0.045294 0.153509 -1.648773 0.045294 0.153509 -1.518597 0.049945 -0.085507 -1.535318 -0.132566 0.292500 -1.812786 -0.419054 0.651546 -2.449857 -0.033168 0.464654 -1.961876 0.687668 -1.776783 -0.040377 1.031374 -1.301281 -1.377250 -0.450045 0.110693 -0.925492 1.162295 -1.140506 -1.186406 1.733000 -0.095447 -0.840899 -0.127676 -0.017502 -0.821970 -0.736488 0.257304
